<svg width="21" height="21" viewBox="0 0 21 21" fill="none" xmlns="http://www.w3.org/2000/svg">
<path d="M10.5 19.25C15.3325 19.25 19.25 15.3325 19.25 10.5C19.25 5.66751 15.3325 1.75 10.5 1.75C5.66751 1.75 1.75 5.66751 1.75 10.5C1.75 15.3325 5.66751 19.25 10.5 19.25Z" stroke="#777E90" stroke-width="1.5" stroke-linecap="round" stroke-linejoin="round"/>
<path d="M7.00039 2.625H7.87539C6.16914 7.735 6.16914 13.265 7.87539 18.375H7.00039" stroke="#777E90" stroke-width="1.5" stroke-linecap="round" stroke-linejoin="round"/>
<path d="M13.125 2.625C14.8312 7.735 14.8312 13.265 13.125 18.375" stroke="#777E90" stroke-width="1.5" stroke-linecap="round" stroke-linejoin="round"/>
<path d="M2.625 14V13.125C7.735 14.8312 13.265 14.8312 18.375 13.125V14" stroke="#777E90" stroke-width="1.5" stroke-linecap="round" stroke-linejoin="round"/>
<path d="M2.625 7.87503C7.735 6.16877 13.265 6.16877 18.375 7.87503" stroke="#777E90" stroke-width="1.5" stroke-linecap="round" stroke-linejoin="round"/>
</svg>
