<svg viewBox="-21 1 511 511.999" xmlns="http://www.w3.org/2000/svg"><path d="m414.617188 7.5h-359.640626c-10.542968 0-19.089843 8.546875-19.089843 19.089844v66.023437h397.820312v-66.023437c0-10.542969-8.546875-19.089844-19.089843-19.089844zm0 0" fill="#f9efd1"/><path d="m84.976562 7.5h-30c-10.542968 0-19.089843 8.546875-19.089843 19.089844v66.023437h30v-66.023437c0-10.542969 8.546875-19.089844 19.089843-19.089844zm0 0" fill="#e6ddc1"/><path d="m35.886719 184.570312h397.820312v289.9375h-397.820312zm0 0" fill="#f9efd1"/><path d="m35.886719 184.570312v289.9375h30v-233.117187c12.957031-2.75 24.394531-9.664063 32.832031-19.277344 11.070312 12.613281 27.292969 20.601563 45.359375 20.601563 18.0625 0 34.285156-7.988282 45.355469-20.601563 11.074218 12.613281 27.296875 20.601563 45.359375 20.601563 18.066406 0 34.289062-7.988282 45.359375-20.601563 11.070312 12.613281 27.296875 20.601563 45.359375 20.601563s34.289062-7.988282 45.359375-20.601563c11.070312 12.613281 27.292968 20.601563 45.359375 20.601563 6.074219 0 11.9375-.910156 17.472656-2.585938v-55.558594zm0 0" fill="#e6ddc1"/><path d="m166.34375 256h-90c-5.777344 0-10.457031 4.683594-10.457031 10.457031v191.808594c0 5.773437 4.679687 10.457031 10.457031 10.457031h90c5.773438 0 10.457031-4.683594 10.457031-10.457031v-191.808594c-.003906-5.773437-4.683593-10.457031-10.457031-10.457031zm0 0" fill="#8c6958"/><path d="m95.886719 458.265625v-191.808594c0-5.773437 4.679687-10.457031 10.457031-10.457031h-30c-5.777344 0-10.457031 4.683594-10.457031 10.457031v191.808594c0 5.773437 4.679687 10.457031 10.457031 10.457031h30c-5.777344 0-10.457031-4.683594-10.457031-10.457031zm0 0" fill="#7e5e4f"/><path d="m393.25 389.320312h-178.25c-5.773438 0-10.457031-4.679687-10.457031-10.457031v-112.40625c0-5.773437 4.683593-10.457031 10.457031-10.457031h178.25c5.773438 0 10.457031 4.683594 10.457031 10.457031v112.40625c0 5.777344-4.683593 10.457031-10.457031 10.457031zm0 0" fill="#add9e8"/><path d="m234.542969 378.863281v-112.40625c0-5.773437 4.683593-10.457031 10.457031-10.457031h-30c-5.773438 0-10.457031 4.683594-10.457031 10.457031v112.40625c0 5.777344 4.683593 10.457031 10.457031 10.457031h30c-5.773438 0-10.457031-4.679687-10.457031-10.457031zm0 0" fill="#9bc3d0"/><path d="m303.910156 389.320312h50.425782l-59.917969-133.320312h-50.425781zm0 0" fill="#c2e3ee"/><path d="m403.707031 377.007812-54.386719-121.007812h-28.234374l59.917968 133.320312h12.246094c5.773438 0 10.457031-4.679687 10.457031-10.457031zm0 0" fill="#c2e3ee"/><path d="m42.457031 72.613281h72.867188l-16.605469 78.8125h-90.71875l25.429688-72.417969c1.347656-3.832031 4.964843-6.394531 9.027343-6.394531zm0 0" fill="#e3637b"/><path d="m72.457031 72.613281h-30c-4.0625 0-7.679687 2.5625-9.027343 6.394531l-25.429688 72.417969h30l25.429688-72.417969c1.347656-3.832031 4.964843-6.394531 9.027343-6.394531zm0 0" fill="#d75e74"/><path d="m115.324219 72.613281h79.648437l-5.535156 78.8125h-90.71875zm0 0" fill="#c2e3ee"/><path d="m115.324219 72.613281-16.605469 78.8125h30l16.605469-78.8125zm0 0" fill="#add9e8"/><path d="m194.972656 72.613281h79.644532l5.539062 78.8125h-90.71875zm0 0" fill="#e3637b"/><path d="m194.972656 72.613281-5.535156 78.8125h30l5.535156-78.8125zm0 0" fill="#d75e74"/><path d="m354.265625 72.613281h72.867187c4.0625 0 7.679688 2.5625 9.027344 6.394531l25.429688 72.417969h-90.71875zm0 0" fill="#e3637b"/><path d="m354.265625 72.613281 16.605469 78.8125h30l-16.605469-78.8125zm0 0" fill="#d75e74"/><path d="m53.359375 227.714844c-25.050781 0-45.359375-20.308594-45.359375-45.359375v-30.929688h90.71875v30.929688c0 25.050781-20.308594 45.359375-45.359375 45.359375zm0 0" fill="#d75e74"/><path d="m38 182.355469v-30.929688h-30v30.929688c0 25.050781 20.308594 45.359375 45.359375 45.359375 5.257813 0 10.300781-.90625 15-2.550782-17.679687-6.195312-30.359375-23.015624-30.359375-42.808593zm0 0" fill="#cc596e"/><path d="m144.078125 227.714844c-25.050781 0-45.359375-20.308594-45.359375-45.359375v-30.929688h90.71875v30.929688c0 25.050781-20.308594 45.359375-45.359375 45.359375zm0 0" fill="#add9e8"/><path d="m128.71875 182.355469v-30.929688h-30v30.929688c0 25.050781 20.308594 45.359375 45.359375 45.359375 5.257813 0 10.300781-.90625 15-2.550782-17.679687-6.195312-30.359375-23.015624-30.359375-42.808593zm0 0" fill="#9bc3d0"/><path d="m234.796875 227.714844c-25.050781 0-45.359375-20.308594-45.359375-45.359375v-30.929688h90.71875v30.929688c0 25.050781-20.308594 45.359375-45.359375 45.359375zm0 0" fill="#d75e74"/><path d="m219.4375 182.355469v-30.929688h-30v30.929688c0 25.050781 20.308594 45.359375 45.359375 45.359375 5.257813 0 10.300781-.90625 15-2.550782-17.679687-6.195312-30.359375-23.015624-30.359375-42.808593zm0 0" fill="#cc596e"/><path d="m325.511719 227.714844c-25.050781 0-45.355469-20.308594-45.355469-45.359375v-30.929688h90.714844v30.929688c0 25.050781-20.304688 45.359375-45.359375 45.359375zm0 0" fill="#add9e8"/><path d="m310.15625 182.355469v-30.929688h-30v30.929688c0 25.050781 20.304688 45.359375 45.355469 45.359375 5.261719 0 10.304687-.90625 15-2.550782-17.675781-6.195312-30.355469-23.015624-30.355469-42.808593zm0 0" fill="#9bc3d0"/><path d="m416.234375 227.714844c-25.054687 0-45.359375-20.308594-45.359375-45.359375v-30.929688h90.714844v30.929688c0 25.050781-20.304688 45.359375-45.355469 45.359375zm0 0" fill="#d75e74"/><path d="m400.871094 182.355469v-30.929688h-30v30.929688c0 25.050781 20.308594 45.359375 45.359375 45.359375 5.261719 0 10.304687-.90625 15-2.550782-17.675781-6.195312-30.359375-23.015624-30.359375-42.808593zm0 0" fill="#cc596e"/><path d="m274.617188 72.613281h79.648437l16.605469 78.8125h-90.714844zm0 0" fill="#c2e3ee"/><path d="m274.617188 72.613281 5.539062 78.8125h30l-5.539062-78.8125zm0 0" fill="#add9e8"/><path d="m449.449219 504.5h-429.308594c-6.703125 0-12.140625-5.4375-12.140625-12.140625v-35.707031c0-6.707032 5.4375-12.140625 12.140625-12.140625h429.308594c6.707031 0 12.140625 5.433593 12.140625 12.140625v35.707031c0 6.703125-5.433594 12.140625-12.140625 12.140625zm0 0" fill="#e6ddc1"/><path d="m38 492.359375v-35.707031c0-6.707032 5.4375-12.140625 12.140625-12.140625h-30c-6.703125 0-12.140625 5.433593-12.140625 12.140625v35.707031c0 6.703125 5.4375 12.140625 12.140625 12.140625h30c-6.703125 0-12.140625-5.4375-12.140625-12.140625zm0 0" fill="#ddd3b8"/><path d="m469.089844 182.355469v-30.929688c0-.214843-.011719-.429687-.03125-.640625-.003906-.03125 0-.066406-.003906-.101562-.027344-.289063-.074219-.570313-.132813-.84375-.011719-.046875-.023437-.09375-.035156-.136719-.054688-.230469-.121094-.460937-.195313-.683594-.007812-.027343-.015625-.054687-.023437-.082031l-25.433594-72.414062c-.507813-1.445313-1.203125-2.777344-2.042969-4 .003906-.097657.015625-.191407.015625-.292969v-45.640625c0-14.660156-11.929687-26.589844-26.589843-26.589844h-359.640626c-14.664062 0-26.589843 11.929688-26.589843 26.589844v45.640625c0 .097656.011719.195312.015625.292969-.84375 1.21875-1.539063 2.554687-2.046875 4l-25.433594 72.414062c-.007813.027344-.011719.054688-.023437.082031-.074219.222657-.136719.449219-.191407.675781-.011719.046876-.027343.097657-.039062.144532-.058594.273437-.101563.554687-.132813.839844-.003906.039062 0 .082031-.003906.121093-.019531.207031-.03125.414063-.03125.621094v30.933594c0 20.117187 11.300781 37.640625 27.886719 46.570312v208.085938h-8.246094c-10.828125 0-19.640625 8.808593-19.640625 19.640625v35.703125c0 10.832031 8.8125 19.644531 19.640625 19.644531h429.308594c10.832031 0 19.640625-8.8125 19.640625-19.644531v-35.703125c0-10.832032-8.808594-19.640625-19.640625-19.640625h-8.242188v-208.082031c16.582031-8.929688 27.882813-26.457032 27.882813-46.574219zm-40.007813-100.863281 21.925781 62.433593h-74.050781l-13.445312-63.8125h63.621093c.875 0 1.660157.554688 1.949219 1.378907zm-385.695312-54.902344c0-6.390625 5.199219-11.589844 11.589843-11.589844h359.640626c6.390624 0 11.589843 5.199219 11.589843 11.589844v38.519531h-71.953125c-.015625 0-.03125 0-.046875 0h-310.820312zm244.269531 132.335937h75.714844v23.429688c0 20.875-16.980469 37.859375-37.855469 37.859375-20.878906 0-37.859375-16.984375-37.859375-37.859375zm-.507812-15-4.484376-63.8125h65.519532l13.445312 63.8125zm-14.492188 15v23.429688c0 20.875-16.984375 37.859375-37.859375 37.859375s-37.859375-16.984375-37.859375-37.859375c0-.003907 0-.007813 0-.011719v-23.417969zm-75.175781-15 4.484375-63.8125h65.660156l4.484375 63.8125zm-36.636719 15h21.09375v23.429688.003906c-.003906 20.875-16.988281 37.855469-37.859375 37.855469-20.875 0-37.859375-16.984375-37.859375-37.859375 0-.003907 0-.007813 0-.011719v-23.417969h26.628906c4.140625 0 7.5-3.359375 7.5-7.5 0-4.144531-3.359375-7.5-7.5-7.5h-24.855468l13.628906-63.8125h65.308594l-4.484376 63.8125h-21.601562c-4.140625 0-7.5 3.355469-7.5 7.5 0 4.140625 3.359375 7.5 7.5 7.5zm-120.335938-77.433593c.289063-.828126 1.074219-1.378907 1.949219-1.378907h63.824219l-13.628906 63.8125h-74.070313zm-25.007812 100.863281v-23.429688h75.71875v23.429688.003906c-.003906 20.875-16.984375 37.855469-37.859375 37.855469s-37.859375-16.984375-37.859375-37.859375zm433.949219 269.65625c2.558593 0 4.640625 2.082031 4.640625 4.640625v35.707031c0 2.558594-2.082032 4.640625-4.640625 4.640625h-429.308594c-2.558594 0-4.640625-2.082031-4.640625-4.640625v-35.707031c0-2.558594 2.082031-4.640625 4.640625-4.640625h15.734375.011719.007812 304.621094c4.140625 0 7.5-3.359375 7.5-7.5s-3.359375-7.5-7.5-7.5h-156.21875v-170.554688c0-9.902343-8.054687-17.957031-17.957031-17.957031h-90c-9.898438 0-17.957032 8.054688-17.957032 17.957031v170.554688h-15v-202.753907c3.234376.621094 6.566407.957032 9.976563.957032 19.238281 0 36.113281-10.335938 45.359375-25.742188 9.246094 15.40625 26.117188 25.742188 45.359375 25.742188 19.238281 0 36.109375-10.335938 45.355469-25.742188 9.25 15.40625 26.121094 25.742188 45.359375 25.742188 19.242187 0 36.113281-10.335938 45.359375-25.742188 9.25 15.40625 26.121094 25.742188 45.359375 25.742188s36.113281-10.335938 45.359375-25.742188c9.246094 15.40625 26.121094 25.742188 45.359375 25.742188 3.410156 0 6.742187-.335938 9.972656-.957032v202.753907h-57.871094c-4.140625 0-7.5 3.355469-7.5 7.5 0 4.140625 3.359375 7.5 7.5 7.5h65.363281.007813.011719zm-376.0625-15v-170.554688c0-1.628906 1.324219-2.957031 2.957031-2.957031h90c1.628906 0 2.957031 1.324219 2.957031 2.957031v170.554688zm342.847656-216.796875c-20.878906 0-37.859375-16.984375-37.859375-37.859375v-23.429688h75.71875v23.429688c-.003906 20.875-16.984375 37.859375-37.859375 37.859375zm0 0"/><path d="m411.207031 378.863281v-112.40625c0-9.902343-8.058593-17.957031-17.957031-17.957031h-178.25c-9.898438 0-17.957031 8.054688-17.957031 17.957031v112.40625c0 9.902344 8.054687 17.957031 17.957031 17.957031h178.25c9.898438 0 17.957031-8.054687 17.957031-17.957031zm-199.164062 0v-112.40625c0-1.628906 1.328125-2.957031 2.957031-2.957031h178.25c1.628906 0 2.957031 1.324219 2.957031 2.957031v112.40625c0 1.632813-1.328125 2.957031-2.957031 2.957031h-178.25c-1.628906 0-2.957031-1.324218-2.957031-2.957031zm0 0"/></svg>